<svg width="101" height="121" viewBox="0 0 101 121" fill="none" xmlns="http://www.w3.org/2000/svg">
<path d="M81.4312 17.6004L48.6063 17.6004L67.8594 0.000395799L101 0.000392914L101 59.4004L81.4313 59.4004L81.4312 17.6004Z" fill="#E60A14"/>
<path d="M60.6 31.1147L60.6 59.4004L40.0844 38.3433L5.78068e-06 38.3433L20.2 18.8575L48.6063 18.8575L60.6 31.1147Z" fill="#E60A14"/>
<path d="M19.5687 103.4L52.3937 103.4L33.1406 121L-1.04301e-05 121L0 61.5996L19.5688 61.5996L19.5687 103.4Z" fill="#E60A14"/>
<path d="M40.4 89.8853L40.4 61.5996L60.9156 82.6568L101 82.6568L80.8 102.142L52.3937 102.142L40.4 89.8853Z" fill="#E60A14"/>
</svg>
