<svg width="128" height="44" viewBox="0 0 128 44" fill="none" xmlns="http://www.w3.org/2000/svg">
<path d="M29.1564 6.79213L17.49 6.79213L24.3328 0.526561L36.1113 0.52656L36.1113 21.6729L29.1564 21.6729L29.1564 6.79213Z" fill="#E60A14"/>
<path d="M21.7527 11.6032L21.7527 21.6729L14.4613 14.1765L0.214832 14.1766L7.39413 7.23967L17.49 7.23967L21.7527 11.6032Z" fill="#E60A14"/>
<path d="M7.16979 37.3368L18.8361 37.3368L11.9934 43.6024L0.21484 43.6023L0.214844 22.4561L7.16979 22.4561L7.16979 37.3368Z" fill="#E60A14"/>
<path d="M14.5734 32.5257L14.5734 22.4561L21.8649 29.9524L36.1113 29.9524L28.932 36.8892L18.8361 36.8892L14.5734 32.5257Z" fill="#E60A14"/>
<path d="M58.7425 8.18006H63.8246V31.0964L48.7341 17.7207V30.0051H43.6832V7.08881L58.7425 20.4645V8.18006ZM75.2655 30.3169C73.6026 30.3169 72.158 30.0155 70.9316 29.4127C69.7261 28.7892 68.7907 27.9162 68.1256 26.7937C67.4604 25.6713 67.1278 24.3514 67.1278 22.834C67.1278 21.2959 67.45 19.9656 68.0944 18.8432C68.7387 17.7207 69.6637 16.8581 70.8693 16.2553C72.0956 15.6525 73.5403 15.3512 75.2031 15.3512C76.866 15.3512 78.269 15.6422 79.4122 16.2242C80.5555 16.7854 81.4285 17.6064 82.0313 18.6873C82.634 19.7681 82.9354 21.0776 82.9354 22.6158C82.9354 22.8444 82.9354 23.0731 82.9354 23.3017C82.9354 23.5096 82.9146 23.6863 82.8731 23.8318H69.778V21.2127H78.6328L77.5103 22.647C77.6143 22.5015 77.6974 22.3248 77.7598 22.1169C77.8429 21.8883 77.8845 21.7012 77.8845 21.5557C77.8845 20.9321 77.7702 20.3917 77.5415 19.9344C77.3129 19.4771 76.9907 19.1238 76.575 18.8743C76.1593 18.6249 75.6708 18.5002 75.1096 18.5002C74.4029 18.5002 73.8105 18.6561 73.3324 18.9679C72.8543 19.2797 72.4906 19.7577 72.2411 20.4021C72.0125 21.0257 71.8878 21.8155 71.867 22.7717C71.867 23.6447 71.9917 24.393 72.2411 25.0165C72.4906 25.6401 72.8647 26.1182 73.3636 26.4508C73.8624 26.7625 74.4756 26.9184 75.2031 26.9184C76.0346 26.9184 76.7413 26.7625 77.3233 26.4508C77.9261 26.139 78.4041 25.6713 78.7575 25.0477L82.9666 26.0766C82.2183 27.49 81.1998 28.5501 79.9111 29.2568C78.6432 29.9636 77.0946 30.3169 75.2655 30.3169ZM84.1589 15.6629H93.762V19.5603H84.1589V15.6629ZM86.6844 10.6744H91.2053V30.0051H86.6844V10.6744ZM99.7283 22.834C99.7283 23.6031 99.8946 24.2683 100.227 24.8295C100.56 25.3699 101.017 25.796 101.599 26.1078C102.202 26.4196 102.846 26.5755 103.532 26.5755C104.114 26.5755 104.665 26.4923 105.185 26.326C105.725 26.139 106.213 25.8895 106.65 25.5778C107.107 25.266 107.481 24.8814 107.772 24.4241V29.0074C107.274 29.4023 106.65 29.7245 105.902 29.9739C105.153 30.2026 104.239 30.3169 103.158 30.3169C101.578 30.3169 100.154 30.0051 98.8865 29.3816C97.6393 28.758 96.652 27.885 95.9245 26.7625C95.2178 25.6401 94.8644 24.3306 94.8644 22.834C94.8644 21.3167 95.2178 20.0072 95.9245 18.9055C96.652 17.7831 97.6393 16.9101 98.8865 16.2865C100.154 15.6629 101.578 15.3512 103.158 15.3512C104.239 15.3512 105.153 15.4759 105.902 15.7253C106.65 15.9539 107.274 16.2449 107.772 16.5983V21.2127C107.481 20.7555 107.097 20.3709 106.619 20.0591C106.162 19.7473 105.663 19.5083 105.122 19.342C104.582 19.1757 104.052 19.0926 103.532 19.0926C102.846 19.0926 102.202 19.2589 101.599 19.5915C101.017 19.924 100.56 20.3709 100.227 20.9321C99.8946 21.4934 99.7283 22.1273 99.7283 22.834ZM110.333 22.834C110.333 21.3167 110.687 19.9968 111.394 18.8743C112.1 17.7519 113.077 16.8789 114.324 16.2553C115.571 15.6318 116.974 15.32 118.533 15.32C120.092 15.32 121.485 15.6318 122.711 16.2553C123.959 16.8789 124.935 17.7519 125.642 18.8743C126.37 19.9968 126.733 21.3167 126.733 22.834C126.733 24.3306 126.37 25.6401 125.642 26.7625C124.935 27.885 123.959 28.758 122.711 29.3816C121.485 30.0051 120.092 30.3169 118.533 30.3169C116.974 30.3169 115.571 30.0051 114.324 29.3816C113.077 28.758 112.1 27.885 111.394 26.7625C110.687 25.6401 110.333 24.3306 110.333 22.834ZM115.166 22.834C115.166 23.5823 115.322 24.2267 115.634 24.7671C115.946 25.2868 116.351 25.6921 116.85 25.9831C117.349 26.2741 117.91 26.4196 118.533 26.4196C119.136 26.4196 119.687 26.2741 120.186 25.9831C120.706 25.6921 121.111 25.2868 121.402 24.7671C121.714 24.2267 121.87 23.5823 121.87 22.834C121.87 22.0857 121.714 21.4414 121.402 20.901C121.111 20.3605 120.706 19.9448 120.186 19.6538C119.687 19.3628 119.136 19.2173 118.533 19.2173C117.91 19.2173 117.349 19.3628 116.85 19.6538C116.351 19.9448 115.946 20.3605 115.634 20.901C115.322 21.4414 115.166 22.0857 115.166 22.834Z" fill="#E60A14"/>
</svg>
